<svg xmlns="http://www.w3.org/2000/svg" width="15.135" height="6.834" viewBox="0 0 15.135 6.834">
  <g id="Infinity-Symbol" transform="translate(-72.211 -58.576)">
    <g id="Grupo_3981" data-name="Grupo 3981" transform="translate(72.211 58.576)">
      <path id="Caminho_2951" data-name="Caminho 2951" d="M72.212,62.083a3.46,3.46,0,0,1,5.261-3,11.048,11.048,0,0,1,2.263,1.925c.034.035.05.031.082,0,1.17-1.179,2.864-2.978,5.237-2.278A2.977,2.977,0,0,1,87.1,60.652a3.471,3.471,0,0,1-5.15,4.179,11.593,11.593,0,0,1-2.129-1.844c-.04-.041-.058-.035-.1,0a8.239,8.239,0,0,1-2.916,2.195A3.31,3.31,0,0,1,72.212,62.083Zm1.449-.05a1.943,1.943,0,0,0,2.457,1.934,6.066,6.066,0,0,0,2.713-1.945c.026-.026.011-.037-.006-.053a9.267,9.267,0,0,0-2.115-1.754A2.055,2.055,0,0,0,73.661,62.033Zm12.231-.063a1.946,1.946,0,0,0-2.509-1.931,6.189,6.189,0,0,0-2.66,1.93c-.026.026-.016.039.005.058.921.859,2.007,2.216,3.475,1.968A2.034,2.034,0,0,0,85.892,61.97Z" transform="translate(-72.211 -58.576)" fill="#adadad"/>
    </g>
  </g>
</svg>
