<svg id="fi-rr-taxi" xmlns="http://www.w3.org/2000/svg" width="15.385" height="15.385" viewBox="0 0 15.385 15.385">
  <rect id="fi-rr-taxi-2" data-name="fi-rr-taxi" width="15" height="15" transform="translate(0)" fill="none"/>
  <path id="Vector" d="M14.244,7.051,14.7,8.527a2.537,2.537,0,0,1-.6,3.937v1a1.923,1.923,0,0,1-3.846,0V12.82H5.129v.641a1.923,1.923,0,0,1-3.846,0v-1a2.537,2.537,0,0,1-.6-3.938l.458-1.474h-.5a.641.641,0,1,1,0-1.282h.9l.495-1.591A3.182,3.182,0,0,1,4.68,1.956,3.194,3.194,0,0,1,7.618,0h.15a3.194,3.194,0,0,1,2.938,1.956,3.182,3.182,0,0,1,2.647,2.222l.494,1.59h.9a.641.641,0,1,1,0,1.282ZM7.618,1.282a1.915,1.915,0,0,0-1.427.641h3a1.917,1.917,0,0,0-1.427-.641ZM2.276,7.721a2.526,2.526,0,0,1,.288-.029H12.821a2.526,2.526,0,0,1,.288.029l-.982-3.163a1.914,1.914,0,0,0-1.837-1.353h-5.2A1.914,1.914,0,0,0,3.259,4.558Zm1.571,5.1H2.565v.641a.641.641,0,1,0,1.282,0Zm8.974,0H11.539v.641a.641.641,0,1,0,1.282,0Zm.907-1.658a1.282,1.282,0,0,0-.907-2.189v.641a.641.641,0,1,1-1.282,0V8.974H3.847v.641a.641.641,0,1,1-1.282,0V8.974a1.282,1.282,0,0,0,0,2.564H12.821A1.282,1.282,0,0,0,13.728,11.163Z" transform="translate(0 0)" fill="#adadad"/>
</svg>
