<svg id="fi-rr-alarm-clock" xmlns="http://www.w3.org/2000/svg" width="15" height="15.005" viewBox="0 0 15 15.005">
  <rect id="fi-rr-alarm-clock-2" data-name="fi-rr-alarm-clock" width="15" height="15" transform="translate(0 0.004)" fill="none"/>
  <path id="Vector" d="M7.09,1.146A6.712,6.712,0,0,1,10.376,2.33a6.2,6.2,0,0,1,2.151,2.631,5.83,5.83,0,0,1,.384,3.306,6,6,0,0,1-1.5,3.01,1.753,1.753,0,0,1,.743.65,1.619,1.619,0,0,1,.25.928.544.544,0,0,1-.173.4.615.615,0,0,1-.836,0,.544.544,0,0,1-.173-.4.65.65,0,0,0-.185-.468.725.725,0,0,0-.476-.217.634.634,0,0,1-.108-.036,6.749,6.749,0,0,1-7.912,0,.574.574,0,0,1-.118.035.725.725,0,0,0-.473.219.65.65,0,0,0-.183.468.544.544,0,0,1-.173.4.615.615,0,0,1-.836,0,.544.544,0,0,1-.173-.4,1.619,1.619,0,0,1,.25-.928,1.753,1.753,0,0,1,.743-.65,6,6,0,0,1-1.5-3.01A5.83,5.83,0,0,1,.472,4.961,6.2,6.2,0,0,1,2.623,2.33,6.712,6.712,0,0,1,5.909,1.146V.559a.544.544,0,0,1,.173-.4.615.615,0,0,1,.836,0,.544.544,0,0,1,.173.4v.587ZM1.182,7.266a4.9,4.9,0,0,0,1.56,3.555,5.545,5.545,0,0,0,6.713.627,5.1,5.1,0,0,0,1.959-2.258,4.778,4.778,0,0,0,.3-2.906A4.952,4.952,0,0,0,10.26,3.709,5.419,5.419,0,0,0,7.537,2.332a5.6,5.6,0,0,0-3.073.286A5.266,5.266,0,0,0,2.078,4.471a4.839,4.839,0,0,0-.9,2.795Z" transform="translate(1.001 1.59)" fill="#adadad"/>
  <path id="Vector-2" data-name="Vector" d="M1,0A4.6,4.6,0,0,1,5.785,4.5a1,1,0,1,1-2,0A2.59,2.59,0,0,0,1,2,1,1,0,1,1,1,0Z" transform="translate(9.215 0)" fill="#adadad"/>
  <path id="Vector-3" data-name="Vector" d="M1.707,5.211A1,1,0,0,1,0,4.5,4.6,4.6,0,0,1,4.785,0a1,1,0,1,1,0,2A2.59,2.59,0,0,0,2,4.5a1,1,0,0,1-.293.707Z" transform="translate(0 0)" fill="#adadad"/>
  <path id="Vector-4" data-name="Vector" d="M3.229,5.689a.686.686,0,0,1-.97.97L.2,4.6A.686.686,0,0,1,0,4.116V.686a.686.686,0,1,1,1.372,0V3.832Z" transform="translate(5.793 5.504)" fill="#adadad"/>
</svg>
