<svg id="fi-rr-key" xmlns="http://www.w3.org/2000/svg" width="12.213" height="12" viewBox="0 0 12.213 12">
  <rect id="fi-rr-key-2" data-name="fi-rr-key" width="12" height="12" fill="none"/>
  <path id="Vector" d="M3.813,11.98a3.858,3.858,0,0,1-2.5-.922,3.695,3.695,0,0,1-.687-4.87A3.844,3.844,0,0,1,4.751,4.61L8.774.663A2.292,2.292,0,0,1,9.521.171,2.327,2.327,0,0,1,10.4,0h0a1.818,1.818,0,0,1,1.271.517A1.75,1.75,0,0,1,12.2,1.765a2.214,2.214,0,0,1-.174.867,2.248,2.248,0,0,1-.5.734l-.342.335a1.034,1.034,0,0,1-.719.292H9.66v.5a.989.989,0,0,1-.3.706,1.027,1.027,0,0,1-.719.292H8.134v.792a.975.975,0,0,1-.077.382.99.99,0,0,1-.221.324L7.5,7.313A3.6,3.6,0,0,1,7.481,9.25a3.752,3.752,0,0,1-1.213,1.845,3.867,3.867,0,0,1-2.057.865,3.967,3.967,0,0,1-.4.02Zm0-6.489A2.837,2.837,0,0,0,2.338,5.9,2.765,2.765,0,0,0,1.305,7.013a2.7,2.7,0,0,0,.273,2.88,2.793,2.793,0,0,0,1.224.9,2.848,2.848,0,0,0,1.526.136,2.818,2.818,0,0,0,1.37-.673A2.738,2.738,0,0,0,6.5,8.98a2.648,2.648,0,0,0-.051-1.647.49.49,0,0,1-.015-.275.5.5,0,0,1,.136-.241l.543-.534V5.491a.989.989,0,0,1,.3-.706,1.027,1.027,0,0,1,.719-.292h.509v-.5a.989.989,0,0,1,.3-.706A1.027,1.027,0,0,1,9.66,3h.807l.342-.335a1.256,1.256,0,0,0,.28-.41,1.237,1.237,0,0,0,.1-.484.76.76,0,0,0-.229-.542A.789.789,0,0,0,10.4,1a1.3,1.3,0,0,0-.494.1,1.284,1.284,0,0,0-.418.275L5.255,5.527a.511.511,0,0,1-.246.134.518.518,0,0,1-.281-.015,2.826,2.826,0,0,0-.918-.155ZM2.687,8.632A.516.516,0,0,1,3.33,8.57a.5.5,0,0,1,.187.224.491.491,0,0,1,.029.288.5.5,0,0,1-.139.256.512.512,0,0,1-.26.137.518.518,0,0,1-.294-.028.507.507,0,0,1-.228-.184.492.492,0,0,1,.063-.63Z" transform="translate(0.01 0)" fill="#adadad"/>
</svg>
