<svg id="fi-rr-book" xmlns="http://www.w3.org/2000/svg" width="15" height="14" viewBox="0 0 15 14">
  <rect id="fi-rr-book-2" data-name="fi-rr-book" width="15" height="14" transform="translate(0 0)" fill="none"/>
  <path id="Vector" d="M8.25,0a2.676,2.676,0,0,1,1.944.855A3.012,3.012,0,0,1,11,2.917v8.167a3.012,3.012,0,0,1-.806,2.061A2.676,2.676,0,0,1,8.25,14H2.2a2.138,2.138,0,0,1-1.556-.683A2.407,2.407,0,0,1,0,11.667V2.917A3.012,3.012,0,0,1,.806.855,2.676,2.676,0,0,1,2.75,0h5.5ZM9.417,1.679A1.6,1.6,0,0,0,8.25,1.167H3.3V9.333H9.9V2.917A1.805,1.805,0,0,0,9.417,1.679ZM2.2,1.267a1.664,1.664,0,0,0-.8.639,1.824,1.824,0,0,0-.3,1.01v6.73a2.094,2.094,0,0,1,1.1-.313V1.267ZM9.417,12.321A1.805,1.805,0,0,0,9.9,11.083V10.5H2.2a1.069,1.069,0,0,0-.778.342,1.217,1.217,0,0,0,0,1.65,1.069,1.069,0,0,0,.778.342H8.25A1.6,1.6,0,0,0,9.417,12.321Z" transform="translate(2 0)" fill="#adadad"/>
</svg>
