<svg id="fi-rr-clip" xmlns="http://www.w3.org/2000/svg" width="13.133" height="14.476" viewBox="0 0 13.133 14.476">
  <rect id="fi-rr-clip-2" data-name="fi-rr-clip" width="13.133" height="14.089" fill="none"/>
  <path id="Vector" d="M12.8,5.764a.608.608,0,0,1,.122.2.646.646,0,0,1,0,.463.608.608,0,0,1-.122.2L6.7,13.213a3.787,3.787,0,0,1-2.774,1.236,3.787,3.787,0,0,1-2.774-1.236,4.452,4.452,0,0,1,0-5.97L7.06.856A2.663,2.663,0,0,1,11,.883,3.134,3.134,0,0,1,11.818,3a3.14,3.14,0,0,1-.8,2.124l-5.91,6.388a1.635,1.635,0,0,1-2.378,0,1.824,1.824,0,0,1-.364-.587,1.937,1.937,0,0,1,0-1.385,1.824,1.824,0,0,1,.364-.587L8,3.259a.533.533,0,0,1,.785.007.636.636,0,0,1,.007.845L3.526,9.8a.636.636,0,0,0,0,.853.544.544,0,0,0,.792,0L10.23,4.267a1.908,1.908,0,0,0-.01-2.548,1.6,1.6,0,0,0-2.368-.01L1.941,8.1a3.18,3.18,0,0,0,0,4.264,2.705,2.705,0,0,0,1.981.883,2.631,2.631,0,0,0,1.072-.23A2.8,2.8,0,0,0,5.9,12.36l6.1-6.6a.533.533,0,0,1,.792,0Z" transform="translate(0.069 0.027)" fill="#adadad"/>
</svg>
