<svg id="fi-rr-tooth" xmlns="http://www.w3.org/2000/svg" width="13.691" height="13.69" viewBox="0 0 13.691 13.69">
  <rect id="fi-rr-tooth-2" data-name="fi-rr-tooth" width="13.302" height="13.302" transform="translate(0)" fill="none"/>
  <path id="Vector" d="M9.075,13.689A1.661,1.661,0,0,1,7.416,12.03V8.556a.57.57,0,1,0-1.141,0V12.03a1.66,1.66,0,0,1-3.09.842C1.819,10.531,0,7,0,3.424A3.3,3.3,0,0,1,3.424,0,7.3,7.3,0,0,1,5.657.353a4.013,4.013,0,0,0,1.189.22A4.013,4.013,0,0,0,8.035.353,7.3,7.3,0,0,1,10.267,0a3.3,3.3,0,0,1,3.422,3.422c0,3.58-1.817,7.107-3.183,9.448a1.66,1.66,0,0,1-1.431.817ZM6.846,6.846A1.711,1.711,0,0,1,8.557,8.556V12.03a.52.52,0,0,0,.964.267c1.3-2.227,3.028-5.57,3.028-8.873a2.2,2.2,0,0,0-2.281-2.281,6.132,6.132,0,0,0-1.915.306,5.109,5.109,0,0,1-1.507.265,5.106,5.106,0,0,1-1.507-.265,6.135,6.135,0,0,0-1.915-.306A2.212,2.212,0,0,0,1.143,3.424c0,3.3,1.728,6.647,3.028,8.873a.519.519,0,0,0,.964-.267V8.557A1.711,1.711,0,0,1,6.846,6.846Z" transform="translate(0 0)" fill="#adadad"/>
</svg>
