<svg xmlns="http://www.w3.org/2000/svg" width="12.82" height="15.384" viewBox="0 0 12.82 15.384">
  <path id="Vector" d="M10.9,5.4A3.205,3.205,0,0,1,12.82,8.333v3.846a3.209,3.209,0,0,1-3.205,3.205H3.205A3.209,3.209,0,0,1,0,12.179V8.333A3.205,3.205,0,0,1,1.923,5.4V4.487a4.487,4.487,0,0,1,8.974,0ZM3.205,5.128h6.41V4.487a3.205,3.205,0,0,0-6.41,0Zm8.333,3.205A1.923,1.923,0,0,0,9.615,6.41H3.205A1.923,1.923,0,0,0,1.282,8.333v3.846A1.923,1.923,0,0,0,3.205,14.1h6.41a1.923,1.923,0,0,0,1.923-1.923Z" fill="#adadad"/>
</svg>
