<svg id="fi-rr-glass-cheers" xmlns="http://www.w3.org/2000/svg" width="14.001" height="15.002" viewBox="0 0 14.001 15.002">
  <rect id="fi-rr-glass-cheers-2" data-name="fi-rr-glass-cheers" width="14" height="15" transform="translate(0.001)" fill="none"/>
  <path id="Vector" d="M13.975,8.588a.478.478,0,0,1,.024.2.489.489,0,0,1-.064.2.541.541,0,0,1-.143.16.605.605,0,0,1-.2.1L12.33,9.6c-.009,0-.009.006-.025.013a.232.232,0,0,1-.046.007l-1.269.355a.641.641,0,0,1-.445-.037.543.543,0,0,1-.286-.31.48.48,0,0,1,.041-.4.573.573,0,0,1,.343-.258l.726-.2-.536-1.421a3.174,3.174,0,0,1-.339.021,3.128,3.128,0,0,1-1.762-.539,2.639,2.639,0,0,1-1.043-1.39L7,3.6,6.3,5.468A2.645,2.645,0,0,1,5.254,6.838a3.129,3.129,0,0,1-1.748.53,3.216,3.216,0,0,1-.326-.021L2.635,8.767l.721.2a.573.573,0,0,1,.343.258.48.48,0,0,1,.041.4.543.543,0,0,1-.286.31.641.641,0,0,1-.445.037L1.737,9.619c-.015,0-.037,0-.046-.007S1.678,9.6,1.669,9.6L.409,9.247a.605.605,0,0,1-.2-.1.541.541,0,0,1-.143-.16A.489.489,0,0,1,0,8.791a.478.478,0,0,1,.025-.2.514.514,0,0,1,.109-.18.577.577,0,0,1,.178-.129.632.632,0,0,1,.219-.058.644.644,0,0,1,.227.022l.761.214.551-1.436A2.721,2.721,0,0,1,.8,5.741,2.371,2.371,0,0,1,.692,4.029L1.781,1.1A1.633,1.633,0,0,1,2.617.192,1.925,1.925,0,0,1,3.92.057L6.168.622A1.765,1.765,0,0,1,7,1.093,1.765,1.765,0,0,1,7.834.622L10.081.057A1.934,1.934,0,0,1,11.392.2a1.638,1.638,0,0,1,.835.923L13.3,4a2.369,2.369,0,0,1-.1,1.719,2.714,2.714,0,0,1-1.262,1.29l.543,1.44.758-.211a.643.643,0,0,1,.226-.022.631.631,0,0,1,.218.058.576.576,0,0,1,.177.129.513.513,0,0,1,.109.18ZM7.793,1.89a.49.49,0,0,0-.069.2.477.477,0,0,0,.021.207l.125.335h3.689l-.444-1.19a.541.541,0,0,0-.212-.279.626.626,0,0,0-.509-.09l-2.247.565a.6.6,0,0,0-.206.094.538.538,0,0,0-.149.16Zm-4.34-.838a.631.631,0,0,0-.348.1.535.535,0,0,0-.212.27L2.443,2.631H6.132l.131-.351a.481.481,0,0,0-.057-.4.578.578,0,0,0-.351-.246L3.607,1.071a.647.647,0,0,0-.155-.019ZM5.739,3.683H2.051l-.242.655a1.42,1.42,0,0,0,.17,1.17,1.687,1.687,0,0,0,.735.632,1.916,1.916,0,0,0,1,.158,1.847,1.847,0,0,0,.929-.369,1.57,1.57,0,0,0,.545-.772Zm3.9,2.427a1.907,1.907,0,0,0,.992.2,1.864,1.864,0,0,0,.948-.331,1.59,1.59,0,0,0,.584-.751,1.432,1.432,0,0,0,.023-.917l-.233-.628H8.263L8.805,5.13a1.533,1.533,0,0,0,.308.565,1.723,1.723,0,0,0,.527.413Z" transform="translate(0 5.002)" fill="#adadad"/>
  <path id="Vector-2" data-name="Vector" d="M.552,3.9A1,1,0,0,1,.109,2.553l1-2a1,1,0,1,1,1.79.894l-1,2A1,1,0,0,1,.552,3.9Z" transform="translate(7.858 0)" fill="#adadad"/>
  <path id="Vector-3" data-name="Vector" d="M.105,1.447A1,1,0,1,1,1.9.553l1,2a1,1,0,1,1-1.8.894Z" transform="translate(3.146 0)" fill="#adadad"/>
  <path id="Vector-4" data-name="Vector" d="M.293,3.707A1,1,0,0,1,0,3V1A1,1,0,0,1,2,1V3a1,1,0,0,1-1.707.707Z" transform="translate(6.001 0.001)" fill="#adadad"/>
</svg>
