<svg id="fi-rr-subtitles" xmlns="http://www.w3.org/2000/svg" width="15.385" height="15" viewBox="0 0 15.385 15">
  <rect id="fi-rr-subtitles-2" data-name="fi-rr-subtitles" width="15" height="15" transform="translate(0)" fill="none"/>
  <path id="Vector" d="M12.179,12.82H3.205A3.209,3.209,0,0,1,0,9.615V3.205A3.209,3.209,0,0,1,3.205,0h8.974a3.209,3.209,0,0,1,3.205,3.205v6.41a3.209,3.209,0,0,1-3.205,3.205ZM3.205,1.282A1.923,1.923,0,0,0,1.282,3.205v6.41a1.923,1.923,0,0,0,1.923,1.923h8.974A1.923,1.923,0,0,0,14.1,9.615V3.205a1.923,1.923,0,0,0-1.923-1.923Z" transform="translate(0 1.283)" fill="#adadad"/>
  <path id="Vector-2" data-name="Vector" d="M5.769,1.282H.641A.641.641,0,0,1,.641,0H5.769a.641.641,0,0,1,0,1.282Z" transform="translate(6.41 7.052)" fill="#adadad"/>
  <path id="Vector-3" data-name="Vector" d="M1.923,1.282H.641A.641.641,0,0,1,.641,0H1.923a.641.641,0,0,1,0,1.282Z" transform="translate(2.564 7.052)" fill="#adadad"/>
  <path id="Vector-4" data-name="Vector" d="M5.769,1.282H.641A.641.641,0,1,1,.641,0H5.769a.641.641,0,1,1,0,1.282Z" transform="translate(2.564 10.256)" fill="#adadad"/>
  <path id="Vector-5" data-name="Vector" d="M1.923,1.282H.641A.641.641,0,1,1,.641,0H1.923a.641.641,0,1,1,0,1.282Z" transform="translate(10.256 10.256)" fill="#adadad"/>
</svg>
