<svg id="fi-rr-settings" xmlns="http://www.w3.org/2000/svg" width="15" height="15.385" viewBox="0 0 15 15.385">
  <rect id="fi-rr-settings-2" data-name="fi-rr-settings" width="15" height="15" fill="none"/>
  <path id="Vector" d="M2.564,0A2.564,2.564,0,1,1,1.14.432,2.564,2.564,0,0,1,2.564,0Zm.907,3.471a1.282,1.282,0,1,0-.907.376A1.282,1.282,0,0,0,3.471,3.471Z" transform="translate(5.128 5.129)" fill="#adadad"/>
  <path id="Vector-2" data-name="Vector" d="M12.879,8.91a1.924,1.924,0,1,1-1.923,3.333l-.287-.165a5.755,5.755,0,0,1-1.826,1.055v.329a1.923,1.923,0,0,1-3.846,0v-.329A5.754,5.754,0,0,1,3.171,12.08l-.285.165A1.924,1.924,0,1,1,.963,8.911l.285-.164a5.833,5.833,0,0,1,0-2.109L.963,6.474A1.924,1.924,0,1,1,2.886,3.141l.287.166A5.755,5.755,0,0,1,5,2.252V1.923a1.923,1.923,0,0,1,3.846,0v.329A5.754,5.754,0,0,1,10.67,3.3l.285-.165a1.924,1.924,0,1,1,1.923,3.333l-.285.164a5.833,5.833,0,0,1,0,2.109l.285.164ZM11.245,6.49a.641.641,0,0,1,.3-.724l.695-.4a.641.641,0,1,0-.641-1.11l-.695.4a.641.641,0,0,1-.779-.106,4.477,4.477,0,0,0-2.079-1.2.641.641,0,0,1-.481-.621v-.8a.641.641,0,1,0-1.282,0v.8a.641.641,0,0,1-.481.624,4.477,4.477,0,0,0-2.079,1.2.641.641,0,0,1-.778.1l-.7-.4A.641.641,0,0,0,1.6,5.363l.695.4a.641.641,0,0,1,.3.724,4.518,4.518,0,0,0,0,2.4.641.641,0,0,1-.3.726l-.695.4a.641.641,0,1,0,.641,1.11l.695-.4a.641.641,0,0,1,.779.106,4.477,4.477,0,0,0,2.078,1.2.641.641,0,0,1,.481.621v.8a.641.641,0,1,0,1.282,0v-.8a.641.641,0,0,1,.481-.621,4.477,4.477,0,0,0,2.079-1.2.641.641,0,0,1,.779-.106l.7.4a.641.641,0,1,0,.641-1.111l-.695-.4a.641.641,0,0,1-.3-.726,4.518,4.518,0,0,0,0-2.4Z" transform="translate(0.771 0)" fill="#adadad"/>
</svg>
