<svg id="fi-rr-gamepad" xmlns="http://www.w3.org/2000/svg" width="19.24" height="19" viewBox="0 0 19.24 19">
  <rect id="fi-rr-gamepad-2" data-name="fi-rr-gamepad" width="19.24" height="19" transform="translate(0)" fill="none"/>
  <path id="Vector" d="M19.017,5.42c0,3.312-1.736,6.023-3.946,6.023-1.184,0-2.131-.843-2.841-2.59a.984.984,0,0,0-.789-.422H7.575a.8.8,0,0,0-.789.422c-.71,1.747-1.657,2.59-2.841,2.59C1.736,11.443,0,8.733,0,5.42A6.651,6.651,0,0,1,1.341,1.506,4.321,4.321,0,0,1,4.735,0H14.2A4.321,4.321,0,0,1,17.6,1.506a7.344,7.344,0,0,1,1.42,3.915Zm-1.657,0a5.84,5.84,0,0,0-1.1-3.312A2.8,2.8,0,0,0,14.2,1.2H4.735a2.8,2.8,0,0,0-2.052.9,5.84,5.84,0,0,0-1.1,3.312c0,2.951,1.578,4.818,2.367,4.818.237,0,.789-.482,1.341-1.747A2.506,2.506,0,0,1,7.575,7.227h3.788a2.4,2.4,0,0,1,2.288,1.265c.552,1.265,1.1,1.747,1.341,1.747.789,0,2.367-1.867,2.367-4.818Z" transform="translate(0 3.669)" fill="#adadad"/>
  <path id="Vector-2" data-name="Vector" d="M4.729,2.335a.74.74,0,0,1-.788.778H3.153v.778a.74.74,0,0,1-.788.778.74.74,0,0,1-.788-.778V3.113H.788A.74.74,0,0,1,0,2.335a.74.74,0,0,1,.788-.778h.788V.778A.74.74,0,0,1,2.364,0a.74.74,0,0,1,.788.778v.778h.788a.74.74,0,0,1,.788.778Z" transform="translate(2.276 6.487)" fill="#adadad"/>
  <path id="Vector-3" data-name="Vector" d="M2.8,1.381A1.39,1.39,0,0,1,1.4,2.762,1.39,1.39,0,0,1,0,1.381,1.39,1.39,0,0,1,1.4,0,1.39,1.39,0,0,1,2.8,1.381Z" transform="translate(11.216 8.011)" fill="#adadad"/>
  <path id="Vector-4" data-name="Vector" d="M2.8,1.381A1.39,1.39,0,0,1,1.4,2.762,1.39,1.39,0,0,1,0,1.381,1.39,1.39,0,0,1,1.4,0,1.39,1.39,0,0,1,2.8,1.381Z" transform="translate(14.012 6.059)" fill="#adadad"/>
</svg>
