<svg id="fi-rr-gym" xmlns="http://www.w3.org/2000/svg" width="15.218" height="15" viewBox="0 0 15.218 15">
  <rect id="fi-rr-gym-2" data-name="fi-rr-gym" width="15" height="15" fill="none"/>
  <path id="Vector" d="M14.547,4.241a2.248,2.248,0,0,1,.5.73,2.216,2.216,0,0,1,0,1.723,2.248,2.248,0,0,1-.5.73,2.291,2.291,0,0,1-.742.488,2.323,2.323,0,0,1-1.752,0,2.291,2.291,0,0,1-.742-.488L9.928,6.063,6.187,9.74,7.571,11.1a2.248,2.248,0,0,1,.5.73,2.216,2.216,0,0,1,0,1.723,2.248,2.248,0,0,1-.5.73,2.291,2.291,0,0,1-.742.488,2.323,2.323,0,0,1-1.752,0,2.291,2.291,0,0,1-.742-.488L2.95,12.923l-.6.591a.634.634,0,0,1-.206.14.644.644,0,0,1-.49,0,.635.635,0,0,1-.208-.136.623.623,0,0,1-.138-.2.614.614,0,0,1,0-.482.624.624,0,0,1,.142-.2l.6-.591L.671,10.681a2.249,2.249,0,0,1-.5-.73,2.217,2.217,0,0,1,0-1.723,2.249,2.249,0,0,1,.5-.73,2.374,2.374,0,0,1,3.236,0L5.291,8.857,9.027,5.182,7.644,3.821a2.249,2.249,0,0,1-.5-.73,2.217,2.217,0,0,1,0-1.723,2.249,2.249,0,0,1,.5-.73,2.374,2.374,0,0,1,3.236,0L12.264,2l.6-.591a.634.634,0,0,1,.206-.14.644.644,0,0,1,.49,0,.635.635,0,0,1,.208.136.623.623,0,0,1,.138.2.614.614,0,0,1,0,.482.624.624,0,0,1-.142.2l-.6.591,1.383,1.361ZM6.9,12.308a1,1,0,0,0-.222-.326l-3.664-3.6a1.033,1.033,0,0,0-1.443,0,.992.992,0,0,0,0,1.42l3.664,3.6a1.057,1.057,0,0,0,1.443,0,1,1,0,0,0,.222-.325.994.994,0,0,0,0-.769Zm6.751-5.765a1,1,0,0,0,.221-.326.988.988,0,0,0,0-.769,1,1,0,0,0-.221-.326l-3.664-3.6a1.033,1.033,0,0,0-1.443,0,.993.993,0,0,0,0,1.42l3.664,3.6a1.057,1.057,0,0,0,1.443,0Z" transform="translate(0 0.036)" fill="#adadad"/>
</svg>
