<svg id="fi-rr-paw" xmlns="http://www.w3.org/2000/svg" width="13.181" height="13.348" viewBox="0 0 13.181 13.348">
  <rect id="fi-rr-paw-2" data-name="fi-rr-paw" width="13.164" height="13" fill="none"/>
  <path id="Vector" d="M4.479,4.337a1.381,1.381,0,0,1-.866-.322,2.609,2.609,0,0,1-.854-1.768A1.84,1.84,0,0,1,4.177.009a1.468,1.468,0,0,1,1.09.322,2.268,2.268,0,0,1,.536.712,2.245,2.245,0,0,1,.219.861C6.145,3.164,5.556,4.337,4.479,4.337ZM4.3,1.084c-.317.035-.505.479-.448,1.055A1.547,1.547,0,0,0,4.3,3.17a.3.3,0,0,0,.195.084c.193-.021.5-.51.43-1.247C4.741.994,4.313,1.084,4.3,1.087ZM1.736,7.591A1.381,1.381,0,0,1,.87,7.269,2.609,2.609,0,0,1,.016,5.5,1.84,1.84,0,0,1,1.434,3.262a1.473,1.473,0,0,1,1.09.322A2.268,2.268,0,0,1,3.06,4.3a2.245,2.245,0,0,1,.219.861c.123,1.26-.493,2.434-1.543,2.434Zm-.18-3.253c-.317.035-.505.479-.448,1.055a1.547,1.547,0,0,0,.453,1.03.307.307,0,0,0,.195.084c.193-.021.5-.51.43-1.247-.145-.991-.616-.922-.629-.919Zm7.132,0c-.937.007-1.664-1.174-1.54-2.436a2.245,2.245,0,0,1,.219-.861A2.268,2.268,0,0,1,7.9.329,1.471,1.471,0,0,1,8.99.009a1.84,1.84,0,0,1,1.419,2.238,2.609,2.609,0,0,1-.854,1.769,1.381,1.381,0,0,1-.866.322ZM8.24,2.006c-.073.735.237,1.224.43,1.247a.305.305,0,0,0,.193-.079,1.547,1.547,0,0,0,.453-1.03C9.431.723,8.339.816,8.24,2.006Zm3.191,5.585c-1.022,0-1.664-1.174-1.54-2.436a2.245,2.245,0,0,1,.219-.861,2.268,2.268,0,0,1,.536-.712,1.467,1.467,0,0,1,1.087-.322A1.84,1.84,0,0,1,13.151,5.5,2.609,2.609,0,0,1,12.3,7.268a1.381,1.381,0,0,1-.866.323Zm-.448-2.332c-.073.735.237,1.224.43,1.247a.317.317,0,0,0,.193-.079,1.547,1.547,0,0,0,.453-1.03c.055-.576-.132-1.021-.448-1.055C11.6,4.337,11.035,4.289,10.983,5.259ZM8.778,13.013a2.687,2.687,0,0,1-1.342-.329,1.847,1.847,0,0,0-1.7,0c-1.653.916-3.58-.091-3.537-2.383,0-2.513,2.473-4.88,4.389-4.88s4.389,2.366,4.389,4.88c0,1.6-.9,2.711-2.194,2.711ZM6.583,11.387a2.694,2.694,0,0,1,1.342.328c1.227.66,1.968-.235,1.949-1.413,0-1.833-1.932-3.8-3.292-3.8S3.292,8.469,3.292,10.3c-.018,1.176.718,2.073,1.949,1.413a2.694,2.694,0,0,1,1.342-.328Z" transform="translate(0.014 0.327)" fill="#adadad"/>
</svg>
