<svg id="fi-rr-gem" xmlns="http://www.w3.org/2000/svg" width="15.387" height="15.385" viewBox="0 0 15.387 15.385">
  <rect id="fi-rr-gem-2" data-name="fi-rr-gem" width="15.385" height="15.384" transform="translate(0 0)" fill="none"/>
  <path id="Vector" d="M14.836,2.225A2.814,2.814,0,0,1,14.437,6L9.349,10.895a2.5,2.5,0,0,1-1.667.641,2.449,2.449,0,0,1-1.635-.621L.926,5.974A2.832,2.832,0,0,1,.575,2.169L1.1,1.48A3.777,3.777,0,0,1,4.09,0H11.3a3.772,3.772,0,0,1,3.031,1.538l.5.687ZM12.419,1.55A2.486,2.486,0,0,0,11.3,1.282H10.215l.41,1.026a4.241,4.241,0,0,1,.238.9h3.071a1.53,1.53,0,0,0-.133-.223l-.5-.688A2.486,2.486,0,0,0,12.419,1.55ZM9.467,4.9a2.791,2.791,0,0,0,.113-.415H5.764a2.976,2.976,0,0,0,.145.524L7.684,9.031Zm.1-1.7a3.077,3.077,0,0,0-.128-.421l-.6-1.5H6.563L5.932,2.866a2.983,2.983,0,0,0-.1.339ZM1.6,2.949a1.488,1.488,0,0,0-.158.256H4.507a4.212,4.212,0,0,1,.235-.815L5.18,1.282H4.09a2.49,2.49,0,0,0-1.969.975ZM6.535,9.6,4.723,5.5a4.406,4.406,0,0,1-.248-1.01H1.415a1.522,1.522,0,0,0,.385.547Zm7.032-4.536a1.6,1.6,0,0,0,.406-.577h-3.1a4.213,4.213,0,0,1-.221.9L8.826,9.624Z" transform="translate(0.002 3.846)" fill="#adadad"/>
  <path id="Vector-2" data-name="Vector" d="M.188,2.376A.641.641,0,0,1,0,1.923V.641a.641.641,0,0,1,1.282,0V1.923a.641.641,0,0,1-1.094.453Z" transform="translate(7.051 0)" fill="#adadad"/>
  <path id="Vector-3" data-name="Vector" d="M.354,2.5A.641.641,0,0,1,.07,1.637L.711.355A.641.641,0,1,1,1.858.928L1.217,2.21a.641.641,0,0,1-.863.29Z" transform="translate(10.257 0)" fill="#adadad"/>
  <path id="Vector-4" data-name="Vector" d="M.068.928A.641.641,0,1,1,1.215.355l.641,1.282A.643.643,0,1,1,.705,2.21Z" transform="translate(3.208 0)" fill="#adadad"/>
</svg>
