<svg xmlns="http://www.w3.org/2000/svg" xmlns:xlink="http://www.w3.org/1999/xlink" width="13.981" height="12.131" viewBox="0 0 13.981 12.131">
  <defs>
    <clipPath id="clip-path">
      <rect width="13.981" height="12.131" fill="none"/>
    </clipPath>
  </defs>
  <g id="Repetição_de_grade_5" data-name="Repetição de grade 5" clip-path="url(#clip-path)">
    <g transform="translate(-348.99 -640.869)">
      <path id="Vector" d="M12.932,1.256a3.882,3.882,0,0,1,1.046,2.8c0,2.615-2.787,5.47-5.124,7.406a2.924,2.924,0,0,1-3.727,0C2.79,9.524,0,6.669,0,4.054a3.882,3.882,0,0,1,1.046-2.8A3.981,3.981,0,0,1,3.788,0,3.762,3.762,0,0,1,5.647.524,3.7,3.7,0,0,1,6.99,1.9,3.7,3.7,0,0,1,8.334.524,3.762,3.762,0,0,1,10.193,0a3.981,3.981,0,0,1,2.739,1.256ZM8.105,10.578C11.1,8.1,12.813,5.723,12.813,4.054a2.739,2.739,0,0,0-.7-1.985,2.809,2.809,0,0,0-1.916-.919,2.809,2.809,0,0,0-1.916.919,2.739,2.739,0,0,0-.7,1.985.571.571,0,0,1-.171.407.588.588,0,0,1-.823,0,.571.571,0,0,1-.171-.407,2.739,2.739,0,0,0-.7-1.985A2.809,2.809,0,0,0,3.788,1.15a2.809,2.809,0,0,0-1.916.919,2.739,2.739,0,0,0-.7,1.985c0,1.669,1.716,4.048,4.708,6.527a1.748,1.748,0,0,0,2.23,0Z" transform="translate(348.99 640.869)" fill="#adadad"/>
    </g>
  </g>
</svg>
