<svg id="fi-rr-graduation-cap" xmlns="http://www.w3.org/2000/svg" width="15.385" height="15" viewBox="0 0 15.385 15">
  <rect id="fi-rr-graduation-cap-2" data-name="fi-rr-graduation-cap" width="15" height="15" transform="translate(0)" fill="none"/>
  <path id="Vector" d="M15.385,4.5v7.692a.641.641,0,0,1-1.282,0V6.907l-1.282.613v3.145a3.21,3.21,0,0,1-2.256,3.063,9.973,9.973,0,0,1-2.872.389,9.972,9.972,0,0,1-2.872-.392,3.21,3.21,0,0,1-2.256-3.063V7.521L1.246,6.893a2.366,2.366,0,0,1-.054-4.138l.054-.029L6.026.445A3.35,3.35,0,0,1,9.412.474l4.727,2.252A2.146,2.146,0,0,1,15.385,4.5Zm-3.846,3.63L9.359,9.173a3.205,3.205,0,0,1-1.652.445,3.38,3.38,0,0,1-1.734-.474L3.846,8.132v2.533A1.923,1.923,0,0,0,5.193,12.5a8.713,8.713,0,0,0,2.5.335,8.713,8.713,0,0,0,2.5-.335,1.923,1.923,0,0,0,1.346-1.835ZM14.1,4.809a1.108,1.108,0,0,0-.57-.955L8.806,1.6a2.115,2.115,0,0,0-2.173-.029l-4.8,2.295a1.085,1.085,0,0,0,.024,1.9l4.73,2.25a2.112,2.112,0,0,0,2.173.029L13.59,5.735a1.09,1.09,0,0,0,.513-.926Z" transform="translate(0 0.627)" fill="#adadad"/>
</svg>
