<svg id="fi-rr-pizza-slice" xmlns="http://www.w3.org/2000/svg" width="14.633" height="14.451" viewBox="0 0 14.633 14.451">
  <rect id="fi-rr-pizza-slice-2" data-name="fi-rr-pizza-slice" width="14.629" height="14.446" transform="translate(0 0.005)" fill="none"/>
  <path id="Vector" d="M14.131.484a1.617,1.617,0,0,1,.385,1.729L10.4,12.549a3.013,3.013,0,0,1-1.431,1.564,3.07,3.07,0,0,1-2.119.248h0A9.688,9.688,0,0,1,2.573,11.9,9.519,9.519,0,0,1,.089,7.679,2.963,2.963,0,0,1,.337,5.587a3.019,3.019,0,0,1,1.58-1.414L12.364.108a1.669,1.669,0,0,1,1.767.376ZM8.243,13.117a1.791,1.791,0,0,0,.845-.687,7.347,7.347,0,0,1-4.915-2.11A7.174,7.174,0,0,1,2.039,5.464a1.78,1.78,0,0,0-.7.835,1.755,1.755,0,0,0-.076,1.079,8.285,8.285,0,0,0,2.163,3.676,8.432,8.432,0,0,0,3.721,2.137,1.816,1.816,0,0,0,1.091-.075Zm2.65-5.1A2.809,2.809,0,0,1,12.973,2.8l.4-1.012a.418.418,0,0,0-.11-.45.441.441,0,0,0-.47-.1L3.234,4.954a6.1,6.1,0,0,0,6.371,6.295Zm1.631-4.091a1.635,1.635,0,0,0-1.206.057,1.606,1.606,0,0,0-.83.867A1.58,1.58,0,0,0,10.5,6.042a1.607,1.607,0,0,0,.843.854Z" transform="translate(0.013 0)" fill="#adadad"/>
  <path id="Vector-2" data-name="Vector" d="M2.082.353a1.194,1.194,0,0,1,0,1.7,1.231,1.231,0,0,1-1.725,0,1.194,1.194,0,0,1,0-1.7,1.231,1.231,0,0,1,1.725,0Z" transform="translate(6.095 6.019)" fill="#adadad"/>
</svg>
