<svg id="fi-rr-bank" xmlns="http://www.w3.org/2000/svg" width="12.696" height="12.501" viewBox="0 0 12.696 12.501">
  <rect id="fi-rr-bank-2" data-name="fi-rr-bank" width="12.694" height="12.5" transform="translate(0.002 0.001)" fill="none"/>
  <path id="Vector" d="M12.7,11.981a.517.517,0,0,1-.155.368.533.533,0,0,1-.374.153H.53a.533.533,0,0,1-.374-.153.515.515,0,0,1,0-.737A.533.533,0,0,1,.53,11.46H12.167a.533.533,0,0,1,.374.153A.517.517,0,0,1,12.7,11.981ZM.155,4.455A1.256,1.256,0,0,1,.236,3.119a2.482,2.482,0,0,1,.882-.781L5.086.3A2.775,2.775,0,0,1,7.611.3l3.967,2.035a2.482,2.482,0,0,1,.882.781,1.256,1.256,0,0,1,.081,1.337,1.423,1.423,0,0,1-.532.552,1.452,1.452,0,0,1-.746.2h-.154V9.376h.529a.533.533,0,0,1,.374.153.515.515,0,0,1,0,.737.533.533,0,0,1-.374.153H1.059a.533.533,0,0,1-.374-.153.515.515,0,0,1,0-.737.533.533,0,0,1,.374-.153h.529V5.209H1.433a1.452,1.452,0,0,1-.746-.2,1.423,1.423,0,0,1-.532-.553ZM2.646,9.376H4.232V5.209H2.646ZM5.29,5.209V9.376H7.406V5.209Zm4.761,0H8.464V9.376h1.587ZM1.092,3.972a.376.376,0,0,0,.143.145.384.384,0,0,0,.2.051h9.83a.384.384,0,0,0,.2-.051.376.376,0,0,0,.143-.145.232.232,0,0,0-.013-.26,1.42,1.42,0,0,0-.5-.45L7.123,1.227a1.7,1.7,0,0,0-1.548,0L1.608,3.262a1.427,1.427,0,0,0-.5.451.232.232,0,0,0-.014.26Z" transform="translate(0 0)" fill="#adadad"/>
</svg>
