<svg id="fi-rr-calendar" xmlns="http://www.w3.org/2000/svg" width="18" height="18" viewBox="0 0 18 18">
  <rect id="fi-rr-calendar-2" data-name="fi-rr-calendar" width="18" height="18" transform="translate(0 0)" fill="none"/>
  <path id="Vector" d="M14.25,1.5A3.755,3.755,0,0,1,18,5.25v9A3.755,3.755,0,0,1,14.25,18H3.75A3.755,3.755,0,0,1,0,14.25v-9A3.755,3.755,0,0,1,3.75,1.5H4.5V.75A.75.75,0,1,1,6,.75V1.5h6V.75a.75.75,0,1,1,1.5,0V1.5h.75ZM1.5,6h15V5.25A2.25,2.25,0,0,0,14.25,3H3.75A2.25,2.25,0,0,0,1.5,5.25Zm14.341,9.841A2.25,2.25,0,0,0,16.5,14.25V7.5H1.5v6.75A2.25,2.25,0,0,0,3.75,16.5h10.5A2.25,2.25,0,0,0,15.841,15.841Z" transform="translate(0 0)" fill="#374957"/>
  <path id="Vector-2" data-name="Vector" d="M2.364,1.182A1.182,1.182,0,1,1,1.182,0,1.182,1.182,0,0,1,2.364,1.182Z" transform="translate(12.072 10.643)" fill="#374957"/>
  <path id="Vector-3" data-name="Vector" d="M2.364,1.182A1.182,1.182,0,1,1,1.182,0,1.182,1.182,0,0,1,2.364,1.182Z" transform="translate(7.818 10.643)" fill="#374957"/>
  <path id="Vector-4" data-name="Vector" d="M2.364,1.182A1.182,1.182,0,1,1,1.182,0,1.182,1.182,0,0,1,2.364,1.182Z" transform="translate(3.565 10.643)" fill="#374957"/>
</svg>
