<!--?xml version="1.0" encoding="utf-8"?-->
<!-- Svg Vector Icons : http://www.onlinewebfonts.com/icon -->

<svg version="1.1" xmlns="http://www.w3.org/2000/svg" xmlns:xlink="http://www.w3.org/1999/xlink" x="0px" y="0px" viewBox="0 0 256 256" enable-background="new 0 0 256 256" xml:space="preserve">
<metadata> Svg Vector Icons : http://www.onlinewebfonts.com/icon </metadata>
<g><g><path fill="#fff" data-title="Layer 0" xs="0" d="M204.5,80.8c-4.2,0-7.6,3.3-7.6,7.3s3.4,7.3,7.6,7.3s7.6-3.3,7.6-7.3S208.6,80.8,204.5,80.8z"/><path fill="#fff" data-title="Layer 1" xs="1" d="M226.5,55H187l-17.1-21.2c-1.1-1.4-2.8-2.2-4.7-2.2H93.3c-1.9,0-3.7,0.9-4.8,2.3L72.5,55h-43C18.7,55,10,63.4,10,73.8v131.8c0,10.4,8.7,18.8,19.5,18.8h197c10.7,0,19.5-8.4,19.5-18.8V73.9C246,63.5,237.3,55,226.5,55z M231.2,205.6c0,2.1-2,4.1-4.7,4.1h-197c-2.7,0-4.7-2-4.7-4.1V73.9c0-2.1,2-4.1,4.7-4.1h43h7.3l4.4-5.8l13.4-17.6H161l14.5,17.9l4.4,5.5h7.1h39.5c2.7,0,4.7,2,4.7,4.1V205.6L231.2,205.6z"/><path fill="#fff" data-title="Layer 2" xs="2" d="M175.5,146.2c-3.8-1.6-8.1,0.1-9.7,3.9c-4.4,10.3-12.8,18.5-23.5,22.6c-21.3,8.2-45.1-2.2-53.7-23.2c-0.6-2.3-2.2-4.2-4.6-5.2c-3.7-1.4-7.9,0.4-9.4,3.9c-0.1,0.2-0.2,0.4-0.2,0.7l-6.9,18c-1.4,3.8,0.4,8,4.3,9.5c3.8,1.5,8.1-0.4,9.5-4.2l1.5-3.9c14.9,19.1,41.1,27.1,64.9,18c14.4-5.5,25.8-16.6,31.7-30.6C181,152.1,179.2,147.8,175.5,146.2z"/><path fill="#fff" data-title="Layer 3" xs="3" d="M190,104.9c-3.5-2-8-0.8-10,2.6l-1.3,2.3c-12.4-26.8-43.6-39.7-71.5-29c-18.7,7.2-32,23.6-35.4,43c-0.7,4,2,7.8,6,8.5c4,0.7,7.8-2,8.5-6c2.5-14.4,12.3-26.5,26.2-31.8c21.6-8.3,45.7,2.5,54,24c1.3,3.5,2.2,7.1,2.6,10.7c0.4,4,4,7,8.1,6.6c1.8-0.2,3.4-1,4.6-2.2c0.5-0.5,0.9-1,1.2-1.6l9.9-17.2C194.8,111.5,193.6,107,190,104.9z"/></g></g>
</svg>