<svg xmlns="http://www.w3.org/2000/svg" width="13.858" height="13.859" viewBox="0 0 13.858 13.859">
  <g id="Group_969" data-name="Group 969" transform="translate(0 0.001)">
    <g id="Group_968" data-name="Group 968" transform="translate(0 -0.001)">
      <circle id="Ellipse_223" data-name="Ellipse 223" cx="0.611" cy="0.611" r="0.611" transform="translate(10.027 4.892)" fill="#374957"/>
      <circle id="Ellipse_236" data-name="Ellipse 236" cx="0.611" cy="0.611" r="0.611" transform="translate(10.027 7.338)" fill="#374957"/>
      <circle id="Ellipse_237" data-name="Ellipse 237" cx="0.611" cy="0.611" r="0.611" transform="translate(10.027 9.784)" fill="#374957"/>
      <circle id="Ellipse_224" data-name="Ellipse 224" cx="0.611" cy="0.611" r="0.611" transform="translate(7.581 4.892)" fill="#374957"/>
      <circle id="Ellipse_234" data-name="Ellipse 234" cx="0.611" cy="0.611" r="0.611" transform="translate(7.581 7.338)" fill="#374957"/>
      <circle id="Ellipse_235" data-name="Ellipse 235" cx="0.611" cy="0.611" r="0.611" transform="translate(7.581 9.784)" fill="#374957"/>
      <path id="Path_3483" data-name="Path 3483" d="M13.317,9.528a.541.541,0,0,0,.541-.542V3.247a2.168,2.168,0,0,0-2.165-2.165h-.7V.541a.541.541,0,1,0-1.083,0v.541H7.444V.541a.543.543,0,1,0-1.085,0v.541H3.924V.541a.541.541,0,0,0-1.083,0v.541H2.165A2.168,2.168,0,0,0,0,3.247v8.445a2.168,2.168,0,0,0,2.165,2.165h9.528a2.168,2.168,0,0,0,2.165-2.165.541.541,0,1,0-1.083,0,1.084,1.084,0,0,1-1.083,1.083H2.165a1.084,1.084,0,0,1-1.083-1.083V3.247A1.084,1.084,0,0,1,2.165,2.165h.677v.541a.541.541,0,0,0,1.083,0V2.165H6.359v.541a.541.541,0,1,0,1.083,0V2.165H9.9v.541a.541.541,0,1,0,1.083,0V2.165h.7a1.084,1.084,0,0,1,1.083,1.083V8.986a.541.541,0,0,0,.545.542Z" transform="translate(0 0.001)" fill="#374957"/>
      <circle id="Ellipse_226" data-name="Ellipse 226" cx="0.611" cy="0.611" r="0.611" transform="translate(2.69 4.892)" fill="#374957"/>
      <circle id="Ellipse_230" data-name="Ellipse 230" cx="0.611" cy="0.611" r="0.611" transform="translate(2.69 7.338)" fill="#374957"/>
      <circle id="Ellipse_231" data-name="Ellipse 231" cx="0.611" cy="0.611" r="0.611" transform="translate(2.69 9.784)" fill="#374957"/>
      <circle id="Ellipse_229" data-name="Ellipse 229" cx="0.611" cy="0.611" r="0.611" transform="translate(5.136 4.892)" fill="#374957"/>
      <circle id="Ellipse_232" data-name="Ellipse 232" cx="0.611" cy="0.611" r="0.611" transform="translate(5.136 7.338)" fill="#374957"/>
      <circle id="Ellipse_233" data-name="Ellipse 233" cx="0.611" cy="0.611" r="0.611" transform="translate(5.136 9.784)" fill="#374957"/>
    </g>
  </g>
</svg>
