<svg id="fi-rr-comment" xmlns="http://www.w3.org/2000/svg" width="24.001" height="24.024" viewBox="0 0 24.001 24.024">
  <rect id="fi-rr-comment-2" data-name="fi-rr-comment" width="24" height="24" transform="translate(0.001 0.024)" fill="none"/>
  <path id="Vector" d="M24,19.024a5.005,5.005,0,0,1-5,5H12.018A12.012,12.012,0,1,1,24,11.271Zm-2-7.658a10.041,10.041,0,0,0-3.6-7.042,9.921,9.921,0,0,0-6.379-2.3,10.564,10.564,0,0,0-1.3.082,10.043,10.043,0,0,0-8.656,8.761,9.917,9.917,0,0,0,2.476,7.814,10.041,10.041,0,0,0,7.476,3.343H19a3,3,0,0,0,3-3Z" transform="translate(0 0)" fill="#374957"/>
  <path id="Vector-2" data-name="Vector" d="M.293,1.707A1,1,0,0,1,1,0H5A1,1,0,1,1,5,2H1a1,1,0,0,1-.707-.293Z" transform="translate(7.001 7.024)" fill="#374957"/>
  <path id="Vector-3" data-name="Vector" d="M9.707.293A1,1,0,0,1,9,2H1A1,1,0,0,1,1,0H9a1,1,0,0,1,.707.293Z" transform="translate(7.001 11.024)" fill="#374957"/>
  <path id="Vector-4" data-name="Vector" d="M9.707.293A1,1,0,0,1,9,2H1A1,1,0,0,1,1,0H9a1,1,0,0,1,.707.293Z" transform="translate(7.001 15.024)" fill="#374957"/>
</svg>
