<svg xmlns="http://www.w3.org/2000/svg" width="18.805" height="16.091" viewBox="0 0 18.805 16.091">
	<g id="money_cash_coins_payment_dollars" transform="translate(-9.85 -26.624)">
		<g id="Grupo_3983" data-name="Grupo 3983" transform="translate(10 26.785)">
			<g id="Grupo_3982" data-name="Grupo 3982">
				<path id="Caminho_2952" data-name="Caminho 2952" d="M20.334,26.848a3.722,3.722,0,0,0-2.572,2.007,2.753,2.753,0,0,0-.353,1.56,2.8,2.8,0,0,0,.274,1.427.922.922,0,0,1,.094.259c-.016.008-2.5-.392-3.481-.565-.173-.031-.815-.141-1.435-.243-1.059-.173-1.121-.18-1.231-.118a.444.444,0,0,0-.18.18C11.4,31.459,10,39.8,10,39.982a.381.381,0,0,0,.212.321c.118.047.173.063,8.264,1.411,6.343,1.059,6.053,1.019,6.218.839a14.65,14.65,0,0,0,.533-2.831c.141-.839.259-1.529.267-1.529s.141-.039.3-.086a3.709,3.709,0,0,0,2.713-3.5,3.4,3.4,0,0,0-1.09-2.556,3.346,3.346,0,0,0-2.321-1.074l-.447-.024V30.44A3.23,3.23,0,0,0,24.31,28.9a3.91,3.91,0,0,0-2.039-1.9A3.761,3.761,0,0,0,20.334,26.848Zm1.09.745a2.7,2.7,0,0,1,1.647.823,2.748,2.748,0,0,1,.69,1.16,2.5,2.5,0,0,1,.086.87c0,.682.016.651-.345.8a3.991,3.991,0,0,0-1.913,1.835l-.071.165-.267.024a2.965,2.965,0,0,1-1.96-.557,3.888,3.888,0,0,1-.729-.808,2.967,2.967,0,0,1,.7-3.764A2.911,2.911,0,0,1,21.424,27.593Zm4.281,4.266a2.669,2.669,0,0,1,1.2.714,1.959,1.959,0,0,1,.5.682,2.427,2.427,0,0,1,.3,1.38,2.054,2.054,0,0,1-.118.9,2.875,2.875,0,0,1-5.418,0,2.342,2.342,0,0,1-.133-.761,2.7,2.7,0,0,1,.823-2.2,2.1,2.1,0,0,1,.682-.51,2.622,2.622,0,0,1,1.435-.3A2.533,2.533,0,0,1,25.706,31.859Zm-12.82.243c.345.055.643.118.659.125.063.055-.173.447-.384.666a1.994,1.994,0,0,1-1,.518.983.983,0,0,1-.259.024c-.016-.016.188-1.317.227-1.427a.069.069,0,0,1,.078-.031C12.235,31.992,12.548,32.047,12.885,32.1Zm3.615.6,2.015.337.18.149a3.748,3.748,0,0,0,2.321.878h.267l-.024.267a3.7,3.7,0,0,0,1.96,3.481,3.637,3.637,0,0,0,1.2.392c.212.016.267.039.259.086,0,.031-.047.321-.1.651l-.1.588-.329.024a2.658,2.658,0,0,0-1.764.855,2.066,2.066,0,0,0-.51.7c-.173.337-.188.361-.274.345-.055-.008-1.945-.329-4.195-.706s-4.148-.69-4.2-.706c-.086-.016-.1-.039-.118-.243a2.824,2.824,0,0,0-.878-1.78,2.792,2.792,0,0,0-.823-.549c-.133-.055-.165-.078-.149-.141.008-.047.125-.761.267-1.592l.251-1.513.259-.024a2.8,2.8,0,0,0,2.219-1.545c.094-.2.157-.29.2-.29C14.462,32.369,15.395,32.525,16.5,32.706ZM11.333,38.3a1.871,1.871,0,0,1,.949,1.317,1.158,1.158,0,0,1,.016.251c-.016.016-1.419-.212-1.443-.235s.227-1.451.243-1.451Zm12.875,2.76c-.071.416-.141.761-.149.768a4.859,4.859,0,0,1-.792-.11l-.768-.133.024-.094a1.939,1.939,0,0,1,.486-.706,1.725,1.725,0,0,1,1.137-.47h.188Z" transform="translate(-10 -26.785)" fill="#374957" stroke="#374957" strokeWidth="0.3" />
				<path id="Caminho_2953" data-name="Caminho 2953" d="M134.358,41.892a.324.324,0,0,0-.125.251c0,.11-.016.125-.18.2a1.265,1.265,0,0,0-.737,1.059c0,.541.368.894,1.247,1.192.533.18.635.274.541.541-.118.353-.745.353-1.168.008-.267-.22-.455-.227-.643-.039a.418.418,0,0,0-.063.455,2.091,2.091,0,0,0,.768.5c.2.071.227.1.227.18a.335.335,0,0,0,.11.2.4.4,0,0,0,.666-.251c0-.047.055-.086.173-.133a1.685,1.685,0,0,0,.384-.282.97.97,0,0,0,.086-1.427,2.256,2.256,0,0,0-1.012-.549c-.51-.172-.635-.314-.486-.588.063-.133.227-.2.478-.2a.554.554,0,0,1,.5.235c.118.118.157.141.282.141a.383.383,0,0,0,.369-.525,1.4,1.4,0,0,0-.6-.525c-.149-.055-.165-.071-.18-.212a.393.393,0,0,0-.353-.353A.284.284,0,0,0,134.358,41.892Z" transform="translate(-123.529 -40.597)" fill="#374957" stroke="#374957" strokeWidth="0.3" />
				<path id="Caminho_2954" data-name="Caminho 2954" d="M184.29,95.889a.412.412,0,0,0-.165.329c0,.086-.024.118-.173.172a1.435,1.435,0,0,0-.369.267,1,1,0,0,0-.329,1.051,1.458,1.458,0,0,0,1,.863c.541.188.674.251.729.329a.356.356,0,0,1-.165.5,1.036,1.036,0,0,1-.753-.071,3.1,3.1,0,0,1-.345-.2.38.38,0,0,0-.627.3.448.448,0,0,0,.22.361,3.634,3.634,0,0,0,.761.384c.024,0,.055.063.063.149a.394.394,0,0,0,.306.353.345.345,0,0,0,.361-.118.3.3,0,0,0,.094-.227c0-.125.016-.141.18-.22a1.123,1.123,0,0,0,.643-1.466,1.825,1.825,0,0,0-1.176-.792c-.51-.165-.6-.267-.518-.541.063-.18.235-.259.533-.243a.473.473,0,0,1,.416.2c.165.165.2.18.353.18a.378.378,0,0,0,.353-.533,1.312,1.312,0,0,0-.572-.5c-.18-.086-.2-.1-.2-.22a.361.361,0,0,0-.376-.345A.319.319,0,0,0,184.29,95.889Z" transform="translate(-169.526 -90.423)" fill="#374957" stroke="#374957" strokeWidth="0.3" />
				<path id="Caminho_2955" data-name="Caminho 2955" d="M88.318,114.518c-.071.063-.11.149-.157.369l-.063.29-.227.047a1.708,1.708,0,0,0-1.145.855,1.361,1.361,0,0,0-.055.863,2.341,2.341,0,0,0,.87.941c.039.016.016.18-.086.714l-.133.69-.149-.094a3.935,3.935,0,0,1-.408-.353c-.227-.22-.282-.251-.4-.251a.317.317,0,0,0-.259.125.351.351,0,0,0-.071.463,3.06,3.06,0,0,0,.784.706c.384.22.353.18.3.47-.055.306-.031.423.118.541a.375.375,0,0,0,.463.016c.118-.071.149-.149.22-.51l.031-.157.267-.071a1.62,1.62,0,0,0,1.106-.831,1.022,1.022,0,0,0,.1-.51.8.8,0,0,0-.11-.494,2.146,2.146,0,0,0-.651-.706c-.1-.063-.18-.141-.18-.18s.055-.345.118-.69c.133-.714.149-.729.361-.353.18.314.439.4.651.212a.378.378,0,0,0,.086-.494,1.842,1.842,0,0,0-.6-.659c-.11-.063-.2-.125-.212-.125a2.644,2.644,0,0,1,.031-.267c.055-.3.031-.423-.1-.541A.38.38,0,0,0,88.318,114.518Zm-.431,1.819c-.039.2-.086.447-.11.557l-.039.2-.141-.141a.9.9,0,0,1-.18-.251.606.606,0,0,1,.1-.455.727.727,0,0,1,.376-.259C87.95,115.985,87.95,116,87.887,116.337Zm.643,2.18a.539.539,0,0,1-.063.729c-.086.086-.314.2-.345.173a3.926,3.926,0,0,1,.078-.549C88.318,118.282,88.326,118.274,88.53,118.517Z" transform="translate(-80.022 -107.562)" fill="#374957" stroke="#374957" strokeWidth="0.3" />
			</g>
		</g>
	</g>
</svg>
