<svg xmlns="http://www.w3.org/2000/svg" width="14.922" height="14.922" viewBox="0 0 14.922 14.922">
	<g id="goal-svgrepo-com" transform="translate(0.25 0.25)">
		<g id="Grupo_3984" data-name="Grupo 3984">
			<path id="Caminho_2956" data-name="Caminho 2956" d="M7.211,0A7.219,7.219,0,0,0,0,7.211,7.116,7.116,0,0,0,.693,10.3a7.211,7.211,0,0,0,13.146-.244,7.079,7.079,0,0,0,.574-2.529c.006-.1.009-.209.009-.312A7.219,7.219,0,0,0,7.211,0Zm0,13.821a6.609,6.609,0,0,1-5.865-3.56l2.94-2.144a1.047,1.047,0,0,1,.522.241,1.539,1.539,0,0,0,.949.355,1.252,1.252,0,0,0,.9-.373.675.675,0,0,1,1.011,0,1.252,1.252,0,0,0,.9.373v-.6a.68.68,0,0,1-.506-.228,1.265,1.265,0,0,0-1.793,0,.679.679,0,0,1-.506.228.969.969,0,0,1-.6-.245,2.921,2.921,0,0,0-.279-.181L6.485,6.513,9.068,7.888l4.1,2.182A6.6,6.6,0,0,1,7.211,13.821Zm6.2-4.307L9.742,7.566l1.418-1.2L13.8,7.689A6.465,6.465,0,0,1,13.407,9.514ZM11.251,5.741a.3.3,0,0,0-.328.039L9.171,7.262,6.76,5.979V5.408h2.1a.3.3,0,0,0,.3-.3v-1.5a.3.3,0,0,0-.3-.3H6.46a.3.3,0,0,0-.3.3v2.4l-5.071,3.7A6.529,6.529,0,0,1,.6,7.211a6.61,6.61,0,0,1,13.217-.186ZM6.76,4.807v-.9h1.8v.9Z" fill="#374957" stroke="#374957" strokeWidth="0.5" />
		</g>
	</g>
</svg>
