<svg id="budget-icon" xmlns="http://www.w3.org/2000/svg" width="17.611" height="15.99" viewBox="0 0 17.611 15.99">
  <path id="Caminho_2957" data-name="Caminho 2957" d="M12.9,4.493h3.781a.936.936,0,0,1,.933.933V9.249a.936.936,0,0,1-.933.933H12.9a2.852,2.852,0,0,1-2.844-2.844h0A2.851,2.851,0,0,1,12.9,4.493ZM.444,5.266H7.653A.446.446,0,0,1,8.1,5.71v9.836a.445.445,0,0,1-.444.444H.444A.446.446,0,0,1,0,15.546V5.71a.446.446,0,0,1,.444-.444Zm4.088,1.9h.74v.6h-.74v-.6Zm1.306,0h.74v.6h-.74v-.6ZM1.048,9.577H2.279a.193.193,0,0,1,.192.192v1.039A.193.193,0,0,1,2.279,11H1.048a.193.193,0,0,1-.192-.192V9.769a.192.192,0,0,1,.192-.192Zm4.72,3.934H7a.192.192,0,0,1,.191.192v1.039A.192.192,0,0,1,7,14.934H5.767a.193.193,0,0,1-.192-.192V13.7a.192.192,0,0,1,.192-.192Zm-2.359,0H4.639a.193.193,0,0,1,.192.192v1.039a.192.192,0,0,1-.192.192H3.408a.193.193,0,0,1-.192-.192V13.7a.192.192,0,0,1,.192-.192Zm-2.361,0H2.279a.193.193,0,0,1,.192.192v1.039a.192.192,0,0,1-.192.192H1.048a.193.193,0,0,1-.192-.192V13.7a.192.192,0,0,1,.192-.192Zm4.72-1.968H7a.192.192,0,0,1,.191.192v1.039A.193.193,0,0,1,7,12.966H5.767a.193.193,0,0,1-.192-.192V11.735a.192.192,0,0,1,.192-.192Zm-2.359,0H4.639a.193.193,0,0,1,.192.192v1.039a.193.193,0,0,1-.192.192H3.408a.193.193,0,0,1-.192-.192V11.735a.192.192,0,0,1,.192-.192Zm-2.361,0H2.279a.193.193,0,0,1,.192.192v1.039a.193.193,0,0,1-.192.192H1.048a.193.193,0,0,1-.192-.192V11.735a.192.192,0,0,1,.192-.192Zm4.72-1.966H7a.192.192,0,0,1,.191.192v1.039A.193.193,0,0,1,7,11H5.767a.193.193,0,0,1-.192-.192V9.769a.192.192,0,0,1,.192-.192Zm-2.359,0H4.639a.193.193,0,0,1,.192.192v1.039A.193.193,0,0,1,4.639,11H3.408a.193.193,0,0,1-.192-.192V9.769a.192.192,0,0,1,.192-.192ZM.947,6.173H7.06a.147.147,0,0,1,.146.146V8.327a.146.146,0,0,1-.146.146H.947A.147.147,0,0,1,.8,8.327V6.319a.147.147,0,0,1,.146-.146ZM3.954,0H13.99a1.624,1.624,0,0,1,1.648,1.615v.269a1.65,1.65,0,0,1,.744,1.376v.595H15.335v-.4a.776.776,0,0,0-.774-.774H4.93V1.822a.21.21,0,0,1,.209-.209h9.594a1.461,1.461,0,0,1,.178.01v-.04a.546.546,0,0,0-.543-.545H4.192a.546.546,0,0,0-.545.543V3.726H2.461V1.5A1.5,1.5,0,0,1,3.954,0ZM9.489,12.029h5.29a.546.546,0,0,0,.545-.545v-.623H16.4V11.89h0a1.474,1.474,0,0,1-1.513,1.286H9.489V12.029Zm3.552-6.494H16.4v3.6H13.041a1.807,1.807,0,0,1-1.8-1.8h0a1.8,1.8,0,0,1,1.8-1.8Zm.824,1.205a.615.615,0,1,1-.615.615.615.615,0,0,1,.615-.615Z" transform="translate(0 0)" fill="#374957" fill-rule="evenodd"/>
</svg>
