<svg xmlns="http://www.w3.org/2000/svg" width="13.326" height="13.238" viewBox="0 0 13.326 13.238">
  <g id="home" transform="translate(0 -1.239)">
    <g id="Layer_5_53_" transform="translate(0 1.239)">
      <g id="Grupo_3986" data-name="Grupo 3986" transform="translate(0 0)">
        <path id="Caminho_2958" data-name="Caminho 2958" d="M143.384,127.03c-.711-.285-.917-.457-.917-.769,0-.249.189-.54.721-.54a2,2,0,0,1,.835.187.263.263,0,0,0,.123.031.248.248,0,0,0,.232-.159l.129-.33a.2.2,0,0,0-.11-.263,4.993,4.993,0,0,0-.862-.225.045.045,0,0,1-.041-.046l0-.479a.266.266,0,0,0-.269-.262h-.232a.266.266,0,0,0-.268.262v.5c0,.039-.042.055-.057.059a1.391,1.391,0,0,0-1.161,1.354c0,.823.68,1.2,1.415,1.474.587.231.827.464.827.807,0,.373-.339.634-.825.634a2.912,2.912,0,0,1-.983-.266.263.263,0,0,0-.113-.026.251.251,0,0,0-.237.165l-.123.334a.217.217,0,0,0,.11.271,4.372,4.372,0,0,0,1.042.29c.008,0,.049.016.049.053v.5a.266.266,0,0,0,.268.262h.24a.266.266,0,0,0,.269-.262v-.528a.05.05,0,0,1,.044-.056,1.456,1.456,0,0,0,1.23-1.428C144.718,127.864,144.319,127.4,143.384,127.03Z" transform="translate(-136.422 -119.804)" fill="#374957"/>
        <g id="Grupo_3985" data-name="Grupo 3985">
          <path id="Caminho_2959" data-name="Caminho 2959" d="M11.377,14.477H1.949a.854.854,0,0,1-.853-.853V7.9c0-.066-.009-.132-.06-.15L.393,7.387A.722.722,0,0,1,.287,6.168L6.073,1.444a.952.952,0,0,1,1.181,0l5.786,4.724a.722.722,0,0,1-.106,1.219l-.643.361c-.045.025-.06.061-.06.132v5.743A.854.854,0,0,1,11.377,14.477ZM2.091,13.132a.308.308,0,0,0,.275.35h8.382a.428.428,0,0,0,.487-.48V7.846a.936.936,0,0,1,.564-.964,1.167,1.167,0,0,0,.114-.064c.2-.153-.014-.294-.014-.294S8.369,3.67,7.095,2.6c-.306-.256-.472-.325-.865,0C4.948,3.661,1.418,6.531,1.418,6.531s-.2.147-.021.278c.03.022.13.073.13.073a.925.925,0,0,1,.564.964S2.091,11.81,2.091,13.132Z" transform="translate(0 -1.239)" fill="#374957"/>
        </g>
      </g>
    </g>
  </g>
</svg>
