<svg xmlns="http://www.w3.org/2000/svg" width="64.972" height="68.481" viewBox="0 0 64.972 68.481">
	<g id="Grupo_3794" data-name="Grupo 3794" transform="translate(-132.983 -39.376)">
		<path id="path1" d="M6.036.053A2.328,2.328,0,0,0,5.484.2,1.856,1.856,0,0,1,5,.329a2.368,2.368,0,0,0-.666.236,1.523,1.523,0,0,1-.362.168,5.341,5.341,0,0,0-.959.525.657.657,0,0,1-.221.125.865.865,0,0,0-.292.209c-.084.09-.153.138-.153.106S2.324,1.668,2.3,1.7A3.16,3.16,0,0,1,2,1.98a1.132,1.132,0,0,0-.218.211,2.7,2.7,0,0,1-.318.357,2.282,2.282,0,0,0-.387.487c-.023.071-.064.13-.092.13A2.3,2.3,0,0,0,.6,3.9c-.036.1-.092.179-.126.179s-.081.117-.1.26S.293,4.6.259,4.6s-.046.027-.026.06a.068.068,0,0,1-.018.095c-.286.177-.268,3.587.022,4.23A3.661,3.661,0,0,1,.4,9.461a1.07,1.07,0,0,0,.166.378.4.4,0,0,1,.092.25c0,.087.027.158.061.158s.1.1.143.227S.967,10.7,1,10.7s.052.056.052.125a.676.676,0,0,0,.162.318.757.757,0,0,1,.162.26.3.3,0,0,0,.081.156,6.521,6.521,0,0,1,.55.993c.091.179.191.369.222.422s.093.171.136.26a1.117,1.117,0,0,0,.113.195.947.947,0,0,1,.2.421c0,.054.027.1.06.1s.079.088.1.195a.459.459,0,0,0,.122.244.819.819,0,0,1,.168.326,1,1,0,0,0,.176.349.274.274,0,0,1,.087.186.288.288,0,0,0,.1.193.536.536,0,0,1,.138.219c.024.077.156.38.295.672a4.667,4.667,0,0,1,.252.593.242.242,0,0,0,.091.136.621.621,0,0,1,.133.3c.023.124.068.225.1.225a1.031,1.031,0,0,1,.21.536.038.038,0,0,0,.041.049c.03,0,.09.117.133.26s.106.26.14.26.063.051.064.114a1.683,1.683,0,0,0,.162.439,1.626,1.626,0,0,1,.16.442c0,.065.026.1.057.082s.094.1.138.256a.663.663,0,0,0,.126.291.781.781,0,0,1,.128.325c.046.179.108.325.139.325s.075.11.1.244a1.308,1.308,0,0,0,.13.383,3.687,3.687,0,0,1,.225.552,2.348,2.348,0,0,0,.2.475.287.287,0,0,1,.06.173.853.853,0,0,0,.094.3,1.252,1.252,0,0,1,.176.492c-.006.027.019.049.055.049s.065.059.065.132a4.823,4.823,0,0,0,.386,1.07c.03.071.09.261.134.422a1.787,1.787,0,0,0,.126.357,2.228,2.228,0,0,1,.134.439A.9.9,0,0,0,8,26.425c.027,0,.081.15.121.334a3.435,3.435,0,0,0,.161.536,7.807,7.807,0,0,1,.241.754,2.561,2.561,0,0,0,.21.594.082.082,0,0,1,.017.109.076.076,0,0,0,.018.1.839.839,0,0,1,.1.362c.025.179.067.311.095.294s.085.187.128.454a1.7,1.7,0,0,0,.134.519,1.165,1.165,0,0,1,.129.407,3.468,3.468,0,0,0,.13.5,2.1,2.1,0,0,1,.1.39,2.313,2.313,0,0,0,.128.455,3.75,3.75,0,0,1,.16.68,1.7,1.7,0,0,0,.13.52c.048.03.08.179.157.731a.331.331,0,0,0,.056.153.132.132,0,0,1,.008.125.108.108,0,0,0,.035.126.779.779,0,0,1,.11.364c.024.177.07.322.1.322s.043.029.021.064a4.612,4.612,0,0,0,.237,1.258,3.1,3.1,0,0,1,.123.65c.069.615.084.7.137.789a7.209,7.209,0,0,1,.2,1.415c0,.063.019.1.046.084a5.146,5.146,0,0,1,.2,1.383c0,.148.024.269.054.269s.055.037.055.081c0,.065.134,1.2.179,1.525a.255.255,0,0,0,.056.125,1.732,1.732,0,0,1,.051.505,7.2,7.2,0,0,0,.067.85c.034.214.075.521.091.682s.058.512.092.78.064.766.066,1.108a1.657,1.657,0,0,0,.085.708c.066.071.063.077-.016.033s-.083-.036-.022.039a10.788,10.788,0,0,1,.15,1.848c.041.965.1,1.844.136,1.954.085.276.081,6.44,0,6.492a2.341,2.341,0,0,0-.07.735c0,.382-.027,1.06-.054,1.507a9.414,9.414,0,0,0,.122,2.428.582.582,0,0,1,.067.311,1.943,1.943,0,0,0,.2.9c.031,0,.074.11.1.244a1.392,1.392,0,0,0,.113.374c.04.071.159.305.263.52a2.86,2.86,0,0,0,.233.422.792.792,0,0,1,.12.209c.092.209.123.246.819.969a3.807,3.807,0,0,0,.682.606c.079.025.129.068.113.095s.07.089.194.137.224.108.224.133.088.081.195.126.195.106.195.138.052.057.115.057a.541.541,0,0,1,.251.1c.075.052.154.077.177.054s.041-.009.041.029.124.091.276.116a1.737,1.737,0,0,1,.394.108,8.983,8.983,0,0,0,3.325.175c.815-.122.877-.136.877-.195,0-.032.1-.058.231-.058a1.072,1.072,0,0,0,.414-.095c.1-.052.2-.076.224-.054s.041.009.041-.029.117-.09.26-.114.26-.075.26-.114.018-.052.04-.03.146-.027.276-.109a1.777,1.777,0,0,1,.4-.189.924.924,0,0,0,.319-.173.533.533,0,0,1,.272-.132c.066,0,.12-.026.12-.058s.108-.109.241-.172a2.072,2.072,0,0,0,.439-.3.848.848,0,0,1,.252-.185,4.8,4.8,0,0,0,.985-.764,1.31,1.31,0,0,1,.347-.276c.037,0,.085-.058.108-.13s.068-.13.1-.13a.829.829,0,0,0,.258-.195,1.564,1.564,0,0,1,.222-.195,3.2,3.2,0,0,0,.319-.276c.164-.152.432-.393.6-.536s.469-.421.677-.617.533-.489.721-.65c.42-.359.98-.876,1.531-1.413a3.124,3.124,0,0,1,.416-.373,2.621,2.621,0,0,0,.383-.341c.355-.347,1.225-1.159,1.65-1.542a.713.713,0,0,1,.244-.164c.034,0,.062-.047.062-.1a.165.165,0,0,1,.128-.137.266.266,0,0,0,.167-.157c.022-.068.062-.11.09-.093s.135-.07.239-.194a.69.69,0,0,1,.265-.225c.042,0,.1-.058.118-.13s.066-.13.1-.13a6.086,6.086,0,0,0,.692-.617,6.511,6.511,0,0,1,.688-.617c.028,0,.051-.044.051-.1s.027-.1.06-.1a6.551,6.551,0,0,0,1.006-.875,1.036,1.036,0,0,1,.314-.244c.027.008.049-.016.049-.053a1.27,1.27,0,0,1,.3-.341c.164-.151.478-.449.7-.663a2.228,2.228,0,0,1,.445-.375c.025.008.063-.042.084-.111a.287.287,0,0,1,.166-.165.172.172,0,0,0,.127-.135.162.162,0,0,1,.1-.134,4.39,4.39,0,0,0,.582-.5c.264-.254.553-.521.641-.592a.448.448,0,0,0,.165-.211c0-.045.028-.081.059-.081a12.945,12.945,0,0,0,1.5-1.364,4.451,4.451,0,0,1,.6-.52c.031,0,.057-.044.057-.1s.026-.1.058-.1a4.23,4.23,0,0,0,.588-.52,4.023,4.023,0,0,1,.592-.52.068.068,0,0,0,.062-.073,1.983,1.983,0,0,1,.588-.577c.029,0,.071-.058.094-.13s.066-.13.1-.13a2.641,2.641,0,0,0,.455-.39,3.7,3.7,0,0,1,.443-.4,2.233,2.233,0,0,0,.336-.352A1.894,1.894,0,0,1,47,46.181a12.078,12.078,0,0,0,1.205-1.136c.13-.139.275-.285.323-.325s.169-.15.27-.246.2-.157.222-.135.039,0,.039-.058.073-.136.162-.184.162-.126.162-.173.028-.086.063-.086a4.855,4.855,0,0,0,.655-.585,5.394,5.394,0,0,1,.647-.585c.03,0,.072-.055.094-.123a.265.265,0,0,1,.167-.156.165.165,0,0,0,.128-.137c0-.057.032-.1.072-.1a3.472,3.472,0,0,0,.593-.52,4.2,4.2,0,0,1,.578-.52c.031,0,.056-.044.056-.1s.028-.1.062-.1a2.2,2.2,0,0,0,.439-.362c.207-.2.692-.66,1.078-1.023S55,38.6,55.338,38.265s.631-.6.646-.6.319-.285.676-.633.843-.809,1.08-1.023.617-.577.845-.806a2.167,2.167,0,0,1,.415-.37,3.521,3.521,0,0,0,.513-.477,5.85,5.85,0,0,1,.55-.523,2.289,2.289,0,0,0,.562-.582.078.078,0,0,1,.085-.068,3.842,3.842,0,0,0,.679-.577,3.5,3.5,0,0,1,.63-.542c.019.019.035-.011.035-.068a.179.179,0,0,1,.13-.145c.071-.023.13-.07.13-.1a.558.558,0,0,1,.146-.217c.08-.084.249-.276.374-.427s.279-.329.341-.4.1-.122.081-.122a1.241,1.241,0,0,1,.195-.324,2.353,2.353,0,0,0,.228-.363.778.778,0,0,1,.13-.2.6.6,0,0,0,.13-.281c0-.064.022-.125.049-.137a1.942,1.942,0,0,0,.368-.785c.024-.134.074-.244.11-.244s.048-.029.026-.065-.012-.065.023-.065.084-.153.109-.341a1.093,1.093,0,0,1,.093-.374c.353-.248.357-4.769,0-5.448a2.984,2.984,0,0,1-.137-.48.93.93,0,0,0-.128-.374c-.025,0-.065-.092-.087-.2a2.5,2.5,0,0,0-.381-.824c-.027-.012-.049-.07-.05-.13a1.193,1.193,0,0,0-.195-.394,1.279,1.279,0,0,1-.194-.368.12.12,0,0,0-.049-.1,2.2,2.2,0,0,1-.276-.363,1.357,1.357,0,0,0-.276-.341c-.027,0-.049-.033-.049-.074a.34.34,0,0,0-.118-.179.677.677,0,0,1-.16-.219.173.173,0,0,0-.142-.114c-.055,0-.1-.029-.1-.064a1.588,1.588,0,0,0-.329-.374c-.181-.17-.466-.441-.635-.6a3.169,3.169,0,0,0-.893-.65.376.376,0,0,1-.176-.132.63.63,0,0,0-.307-.171c-.107-.021-.194-.061-.194-.088a5.292,5.292,0,0,0-1.3-.619.6.6,0,0,1-.261-.1,1.086,1.086,0,0,0-.357-.137,1.638,1.638,0,0,1-.356-.12,2.2,2.2,0,0,0-.448-.119,2.338,2.338,0,0,1-.552-.17,1.454,1.454,0,0,0-.446-.129c-.17-.024-.309-.068-.309-.1,0-.057-.248-.12-.7-.177-.152-.019-.276-.059-.276-.088s-.1-.074-.211-.1a.982.982,0,0,1-.276-.094,2,2,0,0,0-.422-.131,1.739,1.739,0,0,1-.439-.146c-.045-.035-.081-.048-.081-.027s-.1-.005-.225-.057a1.261,1.261,0,0,0-.39-.094c-.09,0-.165-.026-.165-.058s-.153-.095-.341-.138a1.657,1.657,0,0,1-.422-.144c-.045-.035-.081-.049-.081-.029a1.818,1.818,0,0,1-.682-.179,4.319,4.319,0,0,0-.544-.164,2.87,2.87,0,0,1-.52-.171.875.875,0,0,0-.333-.09.863.863,0,0,1-.325-.084,5.389,5.389,0,0,0-1.088-.371c-.188-.043-.341-.1-.341-.128a1.049,1.049,0,0,0-.422-.131c-.232-.044-.422-.107-.422-.141s-.027-.045-.06-.024a.071.071,0,0,1-.1-.023.887.887,0,0,0-.374-.106,1.015,1.015,0,0,1-.427-.136.357.357,0,0,0-.219-.09.679.679,0,0,1-.271-.078,1.039,1.039,0,0,0-.3-.1,1.762,1.762,0,0,1-.65-.215.656.656,0,0,0-.28-.088,1.736,1.736,0,0,1-.435-.136.859.859,0,0,0-.3-.1,1.08,1.08,0,0,1-.312-.088,9.814,9.814,0,0,0-1.335-.437,1.261,1.261,0,0,1-.357-.118,1.84,1.84,0,0,0-.446-.14.983.983,0,0,1-.374-.126c0-.024-.037-.048-.081-.053a2.971,2.971,0,0,1-.828-.212.732.732,0,0,0-.325-.131.781.781,0,0,1-.325-.128.7.7,0,0,0-.325-.087c-.179-.024-.325-.069-.325-.1s-.168-.094-.374-.138a2.291,2.291,0,0,1-.439-.126,1.067,1.067,0,0,0-.26-.092,2.82,2.82,0,0,1-.39-.131,4.039,4.039,0,0,0-.566-.167c-.2-.045-.357-.106-.339-.134s-.078-.07-.213-.092c-.51-.083-.6-.108-.6-.16a1.135,1.135,0,0,0-.455-.135,1.227,1.227,0,0,1-.455-.131c0-.027-.095-.07-.21-.1a1.311,1.311,0,0,1-.341-.128,1.456,1.456,0,0,0-.44-.125c-.17-.024-.309-.073-.309-.108s-.029-.047-.065-.025-.13-.006-.209-.061a.732.732,0,0,0-.357-.1c-.117,0-.213-.029-.213-.065s-.022-.059-.049-.052a3.168,3.168,0,0,1-.666-.191,1.882,1.882,0,0,0-.39-.108,1.443,1.443,0,0,1-.377-.146.956.956,0,0,0-.325-.117,2,2,0,0,1-.7-.2,1.457,1.457,0,0,0-.442-.119.9.9,0,0,1-.411-.138.414.414,0,0,0-.256-.1c-.087,0-.158-.026-.158-.058s-.1-.073-.211-.091a2.986,2.986,0,0,1-.828-.242.969.969,0,0,0-.341-.091c-.17-.025-.309-.07-.309-.1a1.009,1.009,0,0,0-.422-.138,1.244,1.244,0,0,1-.422-.126c0-.023-.037-.045-.081-.049a2.017,2.017,0,0,1-.673-.214c.019-.018-.042-.04-.135-.048a1.653,1.653,0,0,1-.7-.207.784.784,0,0,0-.344-.1,1.4,1.4,0,0,1-.372-.091,3.956,3.956,0,0,0-.52-.192,4.166,4.166,0,0,0-.963-.264c-.06,0-.109-.024-.109-.054s-.037-.058-.081-.063a2.71,2.71,0,0,1-.828-.208,1.158,1.158,0,0,0-.455-.134,1.216,1.216,0,0,1-.455-.131.815.815,0,0,0-.357-.13.908.908,0,0,1-.357-.124c0-.024-.037-.044-.081-.044a2.008,2.008,0,0,1-.763-.223c0-.032-.1-.058-.223-.058a1.282,1.282,0,0,1-.406-.075,1.648,1.648,0,0,0-.248-.085,1.611,1.611,0,0,1-.248-.087,1,1,0,0,0-.312-.078.84.84,0,0,1-.307-.092,1.836,1.836,0,0,0-.419-.137c-.133-.025-.241-.071-.241-.1s-.08-.058-.179-.058a1.96,1.96,0,0,1-.439-.077,1.281,1.281,0,0,0-.309-.065c-.027.006-.049-.015-.049-.047a1.054,1.054,0,0,0-.455-.14,1.274,1.274,0,0,1-.455-.128c0-.045-.166-.087-.65-.163a2.051,2.051,0,0,1-.422-.122A4.311,4.311,0,0,0,12.482.616,1.286,1.286,0,0,1,12.093.5a2.317,2.317,0,0,0-.808-.2c-.091,0-.166-.024-.166-.053,0-.219-3.908-.373-5.082-.2" transform="translate(132.973 39.398)" fill="#68d9a5" fill-rule="evenodd" />
		<path id="path0" d="M143.344,177.121a2.761,2.761,0,0,0,.844,2.558c.161.115.293.25.293.3a.091.091,0,0,0,.089.092,2.854,2.854,0,0,1,.6.411,3.514,3.514,0,0,0,.576.41c.036,0,.135.092.219.205s.2.205.249.205a6.7,6.7,0,0,1,.941.521,12.972,12.972,0,0,0,2.161,1.12,14.9,14.9,0,0,0,12.345-.445c3.489-1.864,4.963-3.28,4.963-4.765,0-.912-.108-1.024-.683-.71a29.568,29.568,0,0,1-2.669,1.361,1.072,1.072,0,0,0-.349.162,19.664,19.664,0,0,1-3.851,1.335c-.257.052-.628.139-.826.193a19.614,19.614,0,0,1-5.962.091c-.257-.056-.722-.143-1.034-.194a2.9,2.9,0,0,1-.721-.19,4.679,4.679,0,0,0-.832-.266,13.881,13.881,0,0,1-2.626-.993.321.321,0,0,0-.212-.095,1.987,1.987,0,0,1-.556-.253,3.254,3.254,0,0,0-.483-.256c-.066,0-1.423-.745-1.794-.98-.406-.258-.621-.2-.684.18" transform="translate(10.504 -99.132)" fill="#3b3b3b" fill-rule="evenodd" />
		<g id="Grupo_3947" data-name="Grupo 3947" transform="translate(131.982 39.352)">
			<text id="_rip" data-name="  rip" transform="translate(21.555 35.3)" fill="#3b3b3b" stroke="#3b3b3b" strokeWidth="0.7" font-size="12" font-family="COCOGOOSE-DemiBold, COCOGOOSE" font-weight="300" letter-spacing="-0.036em">
				<tspan x="0" y="0" xml:space="preserve">
					rip
				</tspan>
			</text>
			<path id="path1972-5" d="M7.134,0c-.7-.01-1.22.608-1.055,1.129-.006,1.039.014,1.98-.012,3.019-.473.316-1.067.484-1.556.782C3.063,5.653,1.569,6.323.153,7.082c-.288.445-.068.955-.141,1.428.062.257.5.333.739.185,1.8-.444,3.57-.965,5.378-1.389-.007.549.029,8.765.009,9.314a1.814,1.814,0,0,1-.043.509c-.4.359-1.07.52-1.324.98a4.652,4.652,0,0,0-.037.913.442.442,0,0,0,.579.307c.526-.134,1.06-.247,1.576-.4a1.368,1.368,0,0,1,.826.041,7.242,7.242,0,0,0,1.775.355c.3-.111.248-.414.219-.627a.776.776,0,0,0-.312-.909c-.356-.229-.744-.43-1.074-.684l-.023-3.3L8.33,7.3c.693.19,1.4.346,2.092.542,1.225.322,2.441.677,3.691.93.313-.042.116-.2.247-.652-.011-.365.18-.7-.078-1.026-1.058-.609-2.23-1.075-3.326-1.639Q9.628,4.818,8.3,4.178c-.1-.457.028-.925-.034-1.386A11.054,11.054,0,0,0,8.181.511,1.172,1.172,0,0,0,7.134,0Z" transform="matrix(0.978, 0.208, -0.208, 0.978, 21.229, 14.76)" fill="#3b3b3b" stroke="#3b3b3b" strokeWidth="0.3" />
		</g>
	</g>
</svg>
