<svg xmlns="http://www.w3.org/2000/svg" width="54.785" height="50.83" viewBox="0 0 54.785 50.83">
  <g id="Grupo_3899" data-name="Grupo 3899" transform="translate(12054 -7293)">
    <path id="smiley_sad_icon_172206" d="M80,102.63a6.63,6.63,0,1,1,6.63,6.63A6.63,6.63,0,0,1,80,102.63Zm46.41,6.63a6.63,6.63,0,1,0-6.63-6.63A6.63,6.63,0,0,0,126.41,109.26Z" transform="translate(-12134 7197)"/>
    <path id="smiley_sad_icon_172206-2" data-name="smiley_sad_icon_172206" d="M127.691,153.066a30.955,30.955,0,0,0-48.675,6.4,4.42,4.42,0,1,0,7.652,4.427,22.115,22.115,0,0,1,38.292,0,4.42,4.42,0,0,0,7.652-4.426A31.065,31.065,0,0,0,127.691,153.066Z" transform="translate(-12132.421 7177.725)"/>
  </g>
</svg>
