<svg xmlns="http://www.w3.org/2000/svg" width="55.647" height="51.63" viewBox="0 0 55.647 51.63">
  <g id="Grupo_3912" data-name="Grupo 3912" transform="translate(12054.001 -7293)">
    <path id="smiley_sad_icon_172206" d="M80,102.734a6.734,6.734,0,1,1,6.734,6.734A6.734,6.734,0,0,1,80,102.734Zm47.14,6.734a6.734,6.734,0,1,0-6.734-6.734A6.734,6.734,0,0,0,127.14,109.469Z" transform="translate(-12134.001 7197)"/>
    <path id="smiley_sad_icon_172206-2" data-name="smiley_sad_icon_172206" d="M50.045,9.2A31.442,31.442,0,0,0,.6,15.7a4.49,4.49,0,1,0,7.772,4.5,22.463,22.463,0,0,1,38.894,0,4.49,4.49,0,0,0,7.773-4.5A31.554,31.554,0,0,0,50.045,9.2Z" transform="translate(-11998.354 7344.63) rotate(180)"/>
  </g>
</svg>
