<svg id="fi-rr-plane" xmlns="http://www.w3.org/2000/svg" width="15.384" height="15.385" viewBox="0 0 15.384 15.385">
  <rect id="fi-rr-plane-2" data-name="fi-rr-plane" width="15" height="15" fill="none"/>
  <path id="Vector" d="M14.807,6.973a1.923,1.923,0,0,1-1.36,3.283H11.181L8.587,14.415a1.905,1.905,0,0,1-1.67.97,1.685,1.685,0,0,1-1.578-2.278l1.069-2.851H4.03A3.213,3.213,0,0,1,1.247,8.641L.212,6.83A1.619,1.619,0,0,1,.066,5.57a1.486,1.486,0,0,1,.747-.912,1.544,1.544,0,0,1,1.8.278l.908.911a1.912,1.912,0,0,0,1.36.563H6.414L5.178,2.154A1.686,1.686,0,0,1,6.8,0h.117A1.923,1.923,0,0,1,8.605,1L11.328,6.41h2.12a1.923,1.923,0,0,1,1.36.563ZM7.749,6.41H9.893L7.47,1.6a.634.634,0,0,0-.553-.315H6.8a.4.4,0,0,0-.388.516ZM13.9,8.787a.641.641,0,0,0-.453-1.094H4.886a3.187,3.187,0,0,1-2.269-.939l-.908-.908a.266.266,0,0,0-.184-.076A.28.28,0,0,0,1.4,5.8a.207.207,0,0,0-.1.135.335.335,0,0,0,.03.256L2.363,8.005a1.923,1.923,0,0,0,1.667.969h3.3a.641.641,0,0,1,.6.865L6.54,13.558a.4.4,0,0,0,.377.545.641.641,0,0,0,.563-.334l2.8-4.492a.641.641,0,0,1,.544-.3h2.622a.641.641,0,0,0,.453-.188Z" transform="translate(0.014 0)" fill="#374957"/>
</svg>
