<svg id="fi-rr-list-check" xmlns="http://www.w3.org/2000/svg" width="24.001" height="24" viewBox="0 0 24.001 24">
  <rect id="fi-rr-list-check-2" data-name="fi-rr-list-check" width="24" height="24" transform="translate(0.001)" fill="none"/>
  <path id="Vector" d="M4,5.977A2.982,2.982,0,0,1,1.879,5.1L.335,3.724A1,1,0,0,1,1.667,2.23L3.252,3.644a1,1,0,0,0,1.456.04L8.312.253A1,1,0,0,1,9.69,1.7L6.1,5.115A2.964,2.964,0,0,1,4,5.977ZM23.708,4.684A1,1,0,0,1,23,4.977H13a1,1,0,1,1,0-2H23a1,1,0,0,1,.707,1.707ZM6.1,13.115A3,3,0,0,1,1.879,13.1L.294,11.513A1,1,0,0,1,1.708,10.1L3.3,11.684a1.023,1.023,0,0,0,1.414,0l3.6-3.431A1,1,0,1,1,9.69,9.7L6.1,13.115Zm17.6-.431a1,1,0,0,1-.707.293H13a1,1,0,1,1,0-2H23a1,1,0,0,1,.707,1.707ZM6.1,21.115A3,3,0,0,1,1.879,21.1L.335,19.724A1,1,0,0,1,1.667,18.23l1.585,1.414a1,1,0,0,0,1.456.04l3.6-3.431A1,1,0,1,1,9.686,17.7L6.1,21.115Zm17.6-.431a1,1,0,0,1-.707.293H13a1,1,0,1,1,0-2H23a1,1,0,0,1,.707,1.707Z" transform="translate(0 0.023)" fill="#374957"/>
</svg>
